<?xml version="1.0" standalone="no"?>
<!DOCTYPE svg PUBLIC "-//W3C//DTD SVG 20010904//EN"
 "http://www.w3.org/TR/2001/REC-SVG-20010904/DTD/svg10.dtd">
<svg version="1.0" xmlns="http://www.w3.org/2000/svg"
 width="500.000000pt" height="500.000000pt" viewBox="0 0 500.000000 500.000000"
 preserveAspectRatio="xMidYMid meet">
<metadata>
Created by potrace 1.14, written by Peter Selinger 2001-2017
</metadata>
<g transform="translate(0.000000,500.000000) scale(0.100000,-0.100000)"
fill="#000000" stroke="none">
<path d="M365 2614 l0 -804 780 0 c847 1 853 1 972 57 146 69 232 209 239 388
4 98 -15 177 -61 260 -34 61 -105 142 -151 171 -23 15 -24 18 -10 38 36 49 76
124 92 171 24 70 22 184 -4 271 -39 128 -127 201 -289 240 -15 4 -374 8 -798
9 l-770 3 0 -804z m1256 389 c24 -23 32 -76 17 -105 -21 -42 -49 -45 -368 -44
l-305 1 -1 80 c-1 44 0 83 2 86 2 4 145 6 319 5 310 -1 315 -1 336 -23z m77
-592 c60 -3 84 -90 37 -136 -13 -14 -34 -25 -47 -26 -120 -5 -703 -2 -711 3
-11 6 -20 143 -12 158 3 5 661 6 733 1z"/>
<path d="M2430 2614 l0 -804 298 0 298 0 -1 148 -1 147 31 31 c16 16 52 48 80
70 27 21 59 47 70 57 11 10 31 27 45 37 l26 18 254 -253 255 -254 415 0 415 0
-55 50 c-46 42 -133 122 -266 244 -18 16 -189 174 -228 210 -6 6 -65 59 -131
119 -66 61 -122 112 -125 115 -3 4 -31 30 -62 59 l-57 53 22 18 c21 18 388
318 471 385 21 17 43 36 50 41 6 6 93 77 194 159 100 82 182 150 182 151 0 2
-190 3 -422 3 l-423 -1 -90 -76 c-49 -42 -101 -86 -115 -98 -14 -11 -106 -90
-205 -174 -99 -83 -182 -155 -185 -158 -3 -3 -32 -28 -65 -56 -33 -27 -63 -54
-67 -60 -4 -5 -8 -8 -9 -5 -1 3 -2 145 -3 315 l-1 310 -297 1 -298 2 0 -804z"/>
</g>
</svg>
